<svg xmlns="http://www.w3.org/2000/svg" width="26" height="33" viewBox="0 0 26 33"><g><g><path fill="#fff" d="M17.661 13.456c0 2.662-2.092 4.828-4.664 4.828-2.571 0-4.664-2.166-4.664-4.828 0-2.661 2.093-4.828 4.664-4.828 2.572 0 4.664 2.167 4.664 4.828zm-1.786.001c0-1.643-1.291-2.979-2.878-2.979-1.586 0-2.878 1.336-2.878 2.979s1.292 2.979 2.878 2.979c1.587 0 2.878-1.337 2.878-2.979zm10.123 0c0 1.027-.112 2.05-.334 3.043-.397 1.772-2.657 5.36-4.483 8.056l-4.033 5.956c-1.087 1.602-2.56 2.485-4.15 2.485-1.591 0-3.065-.882-4.15-2.485l-4.033-5.956C2.988 21.859.728 18.27.332 16.5a13.946 13.946 0 0 1-.335-3.044C-.003 6.036 5.829 0 12.997 0c7.169 0 13 6.037 13.001 13.457zm-1.787 0c0-6.401-5.03-11.609-11.213-11.609-6.184 0-11.214 5.208-11.214 11.608 0 .888.097 1.772.288 2.627.251 1.124 1.824 3.894 4.206 7.412l4.034 5.957c.74 1.093 1.695 1.696 2.686 1.696.991 0 1.946-.603 2.686-1.696l4.034-5.957c2.382-3.518 3.954-6.288 4.205-7.412.191-.855.288-1.74.288-2.627z"/></g></g></svg>